Angels & Demons (2009) DVDRip

Writing library                  : VirtualDub build 31953/release
Original source form             : MAX TORRENTZ
Copyright                        : SIGISMUNT

Video
Format                           : MPEG-4 Visual
Format profile                   : Streaming Video[@]L1
Format settings, BVOP            : Yes
Format settings, QPel            : No
Format settings, GMC             : No warppoints
Format settings, Matrix          : Default (H.263)
Muxing mode                      : Packed bitstream
Codec ID                         : XVID
Codec ID/Hint                    : XviD
Duration                         : 2h 12mn
Bit rate                         : 630 Kbps
Width                            : 640 pixels
Height                           : 272 pixels
Display aspect ratio             : 2.35
Frame rate                       : 25.000 fps
Resolution                       : 24 bits
Colorimetry                      : 4:2:0
Scan type                        : Progressive
Bits/(Pixel*Frame)               : 0.145
Stream size                      : 596 MiB (85%)
Writing library                  : XviD 1.2.1 (UTC 2008-12-04)

Audio
Format                           : MPEG Audio
Format version                   : Version 1
Format profile                   : Layer 3
Codec ID                         : 55
Codec ID/Hint                    : MP3
Duration                         : 2h 12mn
Bit rate mode                    : Variable
Bit rate                         : 99.7 Kbps
Channel(s)                       : 2 channels
Sampling rate                    : 44.1 KHz
Resolution                       : 16 bits
Stream size                      : 94.3 MiB (13%)
Alignment                        : Aligned on interleaves
Interleave, duration             : 26 ms (0.65 video frame)
Interleave, preload duration     : 393 ms


--------------------------------------------------------------------------------
VISIT US AT: 
http://filesharing-vault.com

CONTENT UPDATED DAILY!
